<svg xmlns="http://www.w3.org/2000/svg" viewBox="0 0 250 60" width="100%" height="100%">
  <g transform="translate(10, 5)">
    <path d="M 4.5,0.5 H 39.5 C 41.5,0.5 43,1.5 44,3 L 51,13.5 C 52,15 51.5,17 49.5,17 H 14.5 C 12.5,17 11,16 10,14.5 L 3,4 C 2,2.5 2.5,0.5 4.5,0.5 Z" fill="#6366F1" />
    
    <path d="M 14.5,33 H 49.5 C 51.5,33 52,35 51,36.5 L 44,47 C 43,48.5 41.5,49.5 39.5,49.5 H 4.5 C 2.5,49.5 2,47.5 3,46 L 10,35.5 C 11,34 12.5,33 14.5,33 Z" fill="#6366F1" />
    
    <path d="M 4,6.5 H 20 C 22,6.5 23.5,8 23.5,10 L 21.5,38.5 C 21.5,40.5 20,42 18,42 H 4 C 2,42 0.5,40.5 0.5,38.5 L 0.5,10 C 0.5,8 2,6.5 4,6.5 Z" fill="#F87171" />
    
    <circle cx="34" cy="25" r="7" fill="#F87171" />
  </g>

  <text 
    x="76" 
    y="41" 
    font-family="system-ui, -apple-system, sans-serif" 
    font-size="38" 
    font-weight="800" 
    fill="oklch(0.6397 0.172 36.4421)" 
    letter-spacing="-1"
  >
    Evently
  </text>
</svg>
